<svg width="17" height="24" viewBox="0 0 17 24" fill="none" xmlns="http://www.w3.org/2000/svg">
<path d="M8.5 0.416656C3.82375 0.416656 0.0416641 4.19874 0.0416641 8.87499C0.0416641 13.9137 5.3825 20.8617 7.58167 23.5079C8.065 24.0879 8.94708 24.0879 9.43042 23.5079C11.6175 20.8617 16.9583 13.9137 16.9583 8.87499C16.9583 4.19874 13.1763 0.416656 8.5 0.416656ZM8.5 11.8958C6.8325 11.8958 5.47917 10.5425 5.47917 8.87499C5.47917 7.20749 6.8325 5.85416 8.5 5.85416C10.1675 5.85416 11.5208 7.20749 11.5208 8.87499C11.5208 10.5425 10.1675 11.8958 8.5 11.8958Z" fill="#1C1C1C"/>
</svg>
