<svg width="25" height="21" viewBox="0 0 25 21" fill="none" xmlns="http://www.w3.org/2000/svg">
<path d="M22.1667 0.833344H2.83335C1.50419 0.833344 0.416687 1.92084 0.416687 3.25001V17.75C0.416687 19.0792 1.50419 20.1667 2.83335 20.1667H22.1667C23.4959 20.1667 24.5834 19.0792 24.5834 17.75V3.25001C24.5834 1.92084 23.4959 0.833344 22.1667 0.833344ZM21.6834 5.96876L13.7809 10.9108C12.9954 11.4063 12.0046 11.4063 11.2192 10.9108L3.31669 5.96876C3.0146 5.77543 2.83335 5.44918 2.83335 5.09876C2.83335 4.28918 3.71544 3.80584 4.40419 4.22876L12.5 9.29168L20.5959 4.22876C21.2846 3.80584 22.1667 4.28918 22.1667 5.09876C22.1667 5.44918 21.9854 5.77543 21.6834 5.96876Z" fill="#1C1C1C"/>
</svg>
